<svg width="33" height="42" viewBox="0 0 33 42" fill="none" xmlns="http://www.w3.org/2000/svg">
<path fill-rule="evenodd" clip-rule="evenodd" d="M1.54425 0C1.13469 8.63084e-09 0.741903 0.162697 0.4523 0.4523C0.162697 0.741903 0 1.13469 0 1.54425C0 1.95381 0.162697 2.3466 0.4523 2.6362C0.741903 2.9258 1.13469 3.0885 1.54425 3.0885H3.0885V9.22844C3.0885 10.88 3.50674 12.5047 4.30423 13.951C5.10172 15.3973 6.25247 16.618 7.64919 17.4994L11.8578 20.1556C11.9309 20.202 11.9911 20.2662 12.0329 20.3422C12.0746 20.4181 12.0964 20.5033 12.0964 20.59C12.0964 20.6767 12.0746 20.7619 12.0329 20.8378C11.9911 20.9138 11.9309 20.978 11.8578 21.0245L7.64919 23.6806C6.25247 24.562 5.10172 25.7827 4.30423 27.229C3.50674 28.6753 3.0885 30.3 3.0885 31.9516V38.0915H1.54425C1.13469 38.0915 0.741903 38.2542 0.4523 38.5438C0.162697 38.8334 0 39.2262 0 39.6357C0 40.0453 0.162697 40.4381 0.4523 40.7277C0.741903 41.0173 1.13469 41.18 1.54425 41.18H31.3997C31.8093 41.18 32.2021 41.0173 32.4917 40.7277C32.7813 40.4381 32.944 40.0453 32.944 39.6357C32.944 39.2262 32.7813 38.8334 32.4917 38.5438C32.2021 38.2542 31.8093 38.0915 31.3997 38.0915H29.8555V31.9516C29.8555 30.3 29.4373 28.6753 28.6398 27.229C27.8423 25.7827 26.6915 24.562 25.2948 23.6806L21.0862 21.0245C21.0131 20.978 20.9529 20.9138 20.9111 20.8378C20.8694 20.7619 20.8476 20.6767 20.8476 20.59C20.8476 20.5033 20.8694 20.4181 20.9111 20.3422C20.9529 20.2662 21.0131 20.202 21.0862 20.1556L25.2948 17.4994C26.6915 16.618 27.8423 15.3973 28.6398 13.951C29.4373 12.5047 29.8555 10.88 29.8555 9.22844V3.0885H31.3997C31.8093 3.0885 32.2021 2.9258 32.4917 2.6362C32.7813 2.3466 32.944 1.95381 32.944 1.54425C32.944 1.13469 32.7813 0.741903 32.4917 0.4523C32.2021 0.162697 31.8093 8.63084e-09 31.3997 0H1.54425ZM26.767 3.0885H6.177V9.22844C6.17727 10.3584 6.46366 11.4699 7.00948 12.4593C7.55529 13.4486 8.34276 14.2837 9.29844 14.8866L13.507 17.5427C14.0217 17.8674 14.4457 18.3172 14.7395 18.85C15.0334 19.3829 15.1875 19.9815 15.1875 20.59C15.1875 21.1985 15.0334 21.7971 14.7395 22.33C14.4457 22.8628 14.0217 23.3126 13.507 23.6373L9.29844 26.2934C8.34276 26.8963 7.55529 27.7314 7.00948 28.7207C6.46366 29.7101 6.17727 30.8216 6.177 31.9516V38.0915H26.767V31.9516C26.7667 30.8216 26.4803 29.7101 25.9345 28.7207C25.3887 27.7314 24.6012 26.8963 23.6456 26.2934L19.437 23.6373C18.9223 23.3126 18.4983 22.8628 18.2045 22.33C17.9106 21.7971 17.7565 21.1985 17.7565 20.59C17.7565 19.9815 17.9106 19.3829 18.2045 18.85C18.4983 18.3172 18.9223 17.8674 19.437 17.5427L23.6456 14.8866C24.6012 14.2837 25.3887 13.4486 25.9345 12.4593C26.4803 11.4699 26.7667 10.3584 26.767 9.22844V3.0885Z" fill="#00C2C6"/>
</svg>
