<svg width="50" height="42" viewBox="0 0 50 42" fill="none" xmlns="http://www.w3.org/2000/svg">
<path d="M29.416 2.9416C32.1666 2.94231 34.879 3.58589 37.3367 4.821C39.7944 6.0561 41.9294 7.84855 43.5714 10.0553C45.2134 12.2621 46.3168 14.822 46.7938 17.531C47.2707 20.2399 47.1078 23.0229 46.3183 25.6577C45.5287 28.2925 44.1342 30.7064 42.246 32.7066C40.3579 34.7068 38.0284 36.238 35.4434 37.1781C32.8585 38.1181 30.0895 38.441 27.3576 38.1209C24.6257 37.8008 22.0064 36.8466 19.7087 35.3345V35.2992H19.6558C16.4959 33.2032 14.095 30.1452 12.8088 26.5781C11.5225 23.0111 11.4193 19.1246 12.5143 15.4943C13.6094 11.8639 15.8445 8.6828 18.8886 6.42194C21.9328 4.16109 25.6241 2.94073 29.416 2.9416ZM12.5165 32.3576C13.2519 33.4166 14.0873 34.3991 15.0051 35.2992H1.4708C1.08072 35.2992 0.706616 35.4542 0.430787 35.73C0.154959 36.0058 0 36.3799 0 36.77C0 37.1601 0.154959 37.5342 0.430787 37.81C0.706616 38.0858 1.08072 38.2408 1.4708 38.2408H18.8027C21.9271 40.1183 25.4938 41.1328 29.1385 41.1806C32.7833 41.2285 36.3754 40.3079 39.548 38.5131C42.7205 36.7183 45.3598 34.1134 47.1961 30.9647C49.0324 27.816 50 24.2363 50 20.5912C50 16.9461 49.0324 13.3664 47.1961 10.2177C45.3598 7.06896 42.7205 4.46413 39.548 2.66929C36.3754 0.874451 32.7833 -0.046068 29.1385 0.00177416C25.4938 0.0496163 21.9271 1.0641 18.8027 2.9416H4.4124C4.02232 2.9416 3.64822 3.09656 3.37239 3.37239C3.09656 3.64822 2.9416 4.02232 2.9416 4.4124C2.9416 4.80248 3.09656 5.17658 3.37239 5.45241C3.64822 5.72824 4.02232 5.8832 4.4124 5.8832H15.0051C13.0456 7.7983 11.4892 10.0863 10.4278 12.6123C9.36637 15.1383 8.82133 17.8512 8.8248 20.5912C8.8248 23.7505 9.53667 26.7391 10.8074 29.416H7.354C6.96392 29.416 6.58982 29.571 6.31399 29.8468C6.03816 30.1226 5.8832 30.4967 5.8832 30.8868C5.8832 31.2769 6.03816 31.651 6.31399 31.9268C6.58982 32.2026 6.96392 32.3576 7.354 32.3576H12.5165ZM21.1707 14.4256C19.8366 16.204 19.117 18.368 19.1204 20.5912C19.1204 22.9033 19.8852 25.0389 21.1707 26.7568L24.3476 23.5799C23.8127 22.6748 23.5313 21.6425 23.5328 20.5912C23.5328 19.5028 23.8299 18.4791 24.3476 17.6025L21.1707 14.4256ZM23.2504 12.3459L26.4273 15.5228C27.3323 14.9878 28.3647 14.7063 29.416 14.708C30.5044 14.708 31.5281 15.0051 32.4047 15.5228L35.5816 12.3459C33.8032 11.0118 31.6392 10.2922 29.416 10.2956C27.1039 10.2956 24.9683 11.0604 23.2504 12.3459ZM37.6643 14.4256L34.4873 17.6025C35.0209 18.5083 35.302 19.5404 35.3015 20.5916C35.301 21.6428 35.0188 22.6747 34.4844 23.5799L37.6613 26.7568C38.9497 25.0389 39.7116 22.9033 39.7116 20.5912C39.7116 18.2791 38.9468 16.1435 37.6613 14.4256H37.6643ZM35.5816 28.8394L32.4047 25.6625C31.4993 26.1964 30.467 26.4768 29.416 26.4744C28.3276 26.4744 27.3039 26.1773 26.4273 25.6596L23.2504 28.8365C24.9683 30.1249 27.1039 30.8868 29.416 30.8868C31.7281 30.8868 33.8637 30.122 35.5816 28.8365V28.8394ZM16.1788 20.5912C16.1788 18.8529 16.5212 17.1316 17.1864 15.5255C17.8517 13.9195 18.8267 12.4603 20.0559 11.2311C21.2851 10.0019 22.7443 9.02685 24.3503 8.36162C25.9564 7.69639 27.6777 7.354 29.416 7.354C31.1543 7.354 32.8756 7.69639 34.4817 8.36162C36.0877 9.02685 37.5469 10.0019 38.7761 11.2311C40.0053 12.4603 40.9804 13.9195 41.6456 15.5255C42.3108 17.1316 42.6532 18.8529 42.6532 20.5912C42.6532 24.1019 41.2586 27.4689 38.7761 29.9513C36.2937 32.4338 32.9267 33.8284 29.416 33.8284C25.9053 33.8284 22.5383 32.4338 20.0559 29.9513C17.5734 27.4689 16.1788 24.1019 16.1788 20.5912V20.5912ZM26.4744 20.5912C26.4744 21.3714 26.7843 22.1196 27.336 22.6712C27.8876 23.2229 28.6358 23.5328 29.416 23.5328C30.1962 23.5328 30.9444 23.2229 31.496 22.6712C32.0477 22.1196 32.3576 21.3714 32.3576 20.5912C32.3576 19.811 32.0477 19.0628 31.496 18.5112C30.9444 17.9595 30.1962 17.6496 29.416 17.6496C28.6358 17.6496 27.8876 17.9595 27.336 18.5112C26.7843 19.0628 26.4744 19.811 26.4744 20.5912Z" fill="#00C2C6"/>
</svg>
