<svg width="55" height="55" viewBox="0 0 55 82" fill="none" xmlns="http://www.w3.org/2000/svg">
<path fill-rule="evenodd" clip-rule="evenodd" d="M8.73046 0H37.7509C40.1579 0 42.3547 0.997594 43.921 2.59824C45.5093 4.21171 46.4782 6.42983 46.4782 8.86127V20.1283H43.4579V8.77626H3.00762V69.6953H43.4579V46.6464H46.4782V73.1419C46.4782 75.5862 45.4967 77.8172 43.921 79.4034C42.3295 81.0184 40.1453 82 37.7509 82H8.73046C6.32026 82 4.12342 81.0056 2.55876 79.4034C0.968822 77.7931 0 75.575 0 73.1419V8.84844C0 6.40417 0.979885 4.17322 2.55876 2.5838C4.14713 0.973537 6.32026 0 8.73046 0ZM7.09468 12.1828H11.3114C11.7318 12.1828 12.0763 12.5325 12.0763 12.9591V13.7851L14.5118 12.2999V16.9864L12.0763 15.6536V16.7281C12.0763 17.1548 11.7318 17.5028 11.3114 17.5028H7.09468C6.6727 17.5028 6.32974 17.1548 6.32974 16.7281V12.9591C6.33016 12.7534 6.41088 12.5562 6.55425 12.4107C6.69761 12.2652 6.89194 12.1833 7.09468 12.1828ZM55 26.2326V38.6111C55 39.4531 54.3236 40.1411 53.4922 40.1411H45.0289L41.4887 43.3376C41.133 43.7418 40.4614 43.4916 40.4614 42.9399L40.2843 40.1411H37.6908C36.8626 40.1411 36.183 39.4515 36.183 38.6111V26.2326C36.183 25.3953 36.8658 24.7041 37.6908 24.7041H53.4922C54.3172 24.7041 55 25.3937 55 26.2326ZM26.2704 44.5469C24.3154 45.737 21.6412 45.3119 19.7052 44.0401L19.6941 44.1652L22.806 50.0786L26.2783 44.672C26.2736 44.6319 26.272 44.5886 26.2704 44.5469ZM9.53175 44.2293C11.0047 44.1123 12.0099 43.5205 12.6911 42.5726C13.3802 41.6135 13.7453 40.2855 13.9302 38.7137C14.0266 37.8829 14.0851 37.0152 14.142 36.1331C14.4296 31.7899 14.7394 27.1034 19.8 25.1083C20.5491 24.8132 21.333 24.6255 22.1249 24.5437C23.9203 24.3577 25.7599 24.7201 27.3356 25.6183C28.9129 26.5164 30.2295 27.9535 30.9802 29.9134C31.2852 30.7121 31.497 31.599 31.595 32.5694V32.587C31.5807 35.1756 31.9996 38.5196 33.1359 40.9671C33.9767 42.7763 35.2095 44.0914 36.9464 44.2293C37.0159 44.2342 37.0681 44.2935 37.0634 44.3625L37.0523 44.4058C36.5687 45.6905 33.5974 46.7041 30.9075 46.8148L30.9407 46.8212L31.0134 46.8388L31.1524 46.8677C31.3611 47.8813 31.4164 48.9447 31.3895 49.9134C31.3816 50.2117 31.3721 50.2983 31.3674 50.3994C30.7698 50.5341 30.2353 50.8717 29.8522 51.3563C29.4692 51.841 29.2605 52.4437 29.2606 53.065C29.2606 53.8204 29.5625 54.5036 30.0493 54.9976C30.9991 55.9615 32.3836 56.1828 33.6037 55.2141C34.2343 54.7153 34.6389 53.9358 34.6389 53.0617C34.6389 51.8091 33.8772 50.8869 32.7345 50.4186C32.5654 50.3496 32.6175 50.2454 32.6254 49.9439C32.6507 49.0297 32.6191 48.0834 32.4958 47.1644C35.0388 47.7706 36.7852 48.4908 37.9547 49.7979C39.3455 51.352 39.8639 54.2727 39.8639 58.1171C39.8639 58.3705 39.6616 58.5774 39.4119 58.5774H7.06624C6.81652 58.5774 6.61422 58.3705 6.61422 58.1171C6.61422 54.3737 7.10575 51.4515 8.41595 49.8861C9.7056 48.3432 11.7333 47.5894 14.8184 46.9671C14.4217 46.9366 14.0234 46.8837 13.633 46.8083C11.6338 46.4234 9.81308 45.4707 9.42112 44.3945C9.39899 44.3288 9.43376 44.2582 9.50014 44.2358L9.53175 44.2293ZM16.8619 46.8677C16.6976 46.8998 16.5284 46.9254 16.3562 46.9447C16.1428 46.9687 15.9231 46.9832 15.7003 46.9896C15.6276 47.3809 15.5818 47.7594 15.558 48.1107C15.242 48.3448 14.4565 48.6207 14.2068 48.9254C13.7691 49.4539 13.3792 50.0212 13.042 50.6207C12.9882 50.7153 12.9582 50.8244 12.9582 50.9334C12.9582 51.0201 13.0467 51.1067 13.0088 51.1836L12.9519 51.2959C12.168 52.8452 11.6559 54.5501 11.8993 55.2847C12.0131 55.6343 12.2849 55.8637 12.6895 55.9904C13.0009 56.0722 13.3201 56.1139 13.6409 56.1139C13.7374 56.1139 13.8322 56.1107 13.927 56.1026C13.9713 56.1443 14.0234 56.1844 14.0835 56.2229C14.1467 56.263 14.2147 56.2951 14.2842 56.3208C14.3727 56.3545 14.4659 56.3737 14.5608 56.3737C14.7617 56.3733 14.9543 56.292 15.0962 56.1476C15.2381 56.0033 15.3178 55.8077 15.3178 55.6039C15.3178 55.4948 15.2925 55.3857 15.2499 55.2847C15.125 54.9928 14.8453 54.7827 14.5307 54.7923C14.2526 54.8019 13.8543 54.9302 13.8543 55.2141V55.2205L13.8448 55.2382C13.78 55.243 13.7152 55.2446 13.6504 55.2446C13.4134 55.2446 13.1747 55.2205 12.9455 55.1596C12.8112 55.1243 12.7338 55.0682 12.7148 55.012C12.5394 54.4972 13.0182 53.0698 13.7089 51.6921C13.7374 51.6343 13.7658 51.5782 13.7943 51.5237C13.927 51.4723 14.0408 51.3777 14.1103 51.2526C14.4075 50.7217 14.7536 50.2133 15.1392 49.745C15.2973 49.5525 15.9152 49.2173 16.1618 49.2173H16.2234C16.4131 49.3553 16.5901 49.514 16.745 49.6921C17.1575 50.1652 17.5226 50.6864 17.8323 51.2318C17.9019 51.3569 18.0694 51.3825 18.1437 51.5044C18.9418 52.818 19.3922 54.3224 19.2848 54.8949C19.2626 55.0297 19.152 55.1099 18.9813 55.166C18.7221 55.235 18.4566 55.2735 18.1895 55.2783C18.1784 55.259 18.169 55.2398 18.1579 55.2205V55.2141C18.1642 54.9302 17.7596 54.8019 17.4815 54.7923C17.167 54.7811 16.8872 54.9928 16.7624 55.2847C16.7197 55.3857 16.6944 55.4948 16.6944 55.6039C16.6944 56.0289 17.0326 56.3737 17.453 56.3737C17.5463 56.3737 17.6395 56.3545 17.728 56.3208C17.7976 56.2951 17.8655 56.263 17.9287 56.2229C17.9682 56.1973 18.0046 56.1716 18.0378 56.146C18.0726 56.1476 18.1089 56.1476 18.1453 56.1476C18.5198 56.1476 18.896 56.1026 19.2532 55.9888C19.7115 55.8428 20.0355 55.5493 20.1272 55.0537C20.2615 54.3079 19.7257 52.656 18.9371 51.1612C18.9687 51.0826 18.9876 50.9992 18.9876 50.9126C18.9867 50.8003 18.9567 50.6903 18.9007 50.5934C18.5451 49.9727 18.1295 49.3825 17.6616 48.8468C17.4119 48.5597 16.8603 48.478 16.8019 48.0978C16.7434 47.7145 16.7703 47.2975 16.8619 46.8677ZM26.8362 42.1764C27.2851 41.6921 27.6991 41.1933 28.0658 40.6672C28.4293 40.1427 28.7501 39.5894 29.0204 38.9928C29.2003 38.1588 29.2919 37.3076 29.2938 36.4539C29.2954 35.6022 29.2101 34.7249 29.0283 33.8236C28.1559 33.4146 27.432 32.7763 26.8536 31.9134C26.3526 31.1692 25.9591 30.2566 25.6682 29.182C24.8575 32.4988 21.4216 33.2751 19.0572 33.8091C18.2796 33.984 17.619 34.1331 17.2286 34.3336C17.227 34.7281 17.2159 35.1307 17.2049 35.5172C17.1591 37.1451 17.1227 38.4828 17.9335 40.1187L17.9398 40.1363C18.0473 40.3528 18.1595 40.5646 18.2733 40.7666C18.3902 40.9735 18.5103 41.1724 18.6352 41.3649C18.7458 41.5381 18.8565 41.7081 18.9655 41.8605C19.0777 42.016 19.1931 42.1636 19.3195 42.2967L19.4096 42.3881C20.4259 43.4002 21.7756 43.8444 23.1111 43.7995C24.4497 43.7546 25.7773 43.2173 26.7445 42.2694L26.8362 42.1764ZM40.6068 31.2334C40.4018 31.2334 40.2052 31.1507 40.0603 31.0036C39.9153 30.8566 39.8339 30.6571 39.8339 30.4491C39.8339 30.016 40.18 29.6632 40.6068 29.6632H50.5763C51.003 29.6632 51.3491 30.016 51.3491 30.4491C51.3491 30.8821 51.003 31.2334 50.5763 31.2334H40.6068ZM40.6068 35.4194C40.4018 35.4194 40.2052 35.3368 40.0603 35.1897C39.9153 35.0426 39.8339 34.8431 39.8339 34.6351C39.8339 34.2005 40.18 33.8492 40.6068 33.8492H48.7366C48.9418 33.8492 49.1386 33.932 49.2837 34.0792C49.4288 34.2264 49.5103 34.4261 49.5103 34.6343C49.5103 34.8425 49.4288 35.0422 49.2837 35.1895C49.1386 35.3367 48.9418 35.4194 48.7366 35.4194H40.6068ZM23.228 72.4667C25.2036 72.4667 26.8172 74.0802 26.8172 76.1075C26.8172 78.1139 25.2273 79.7514 23.228 79.7514C21.2524 79.7514 19.6372 78.1395 19.6372 76.1075C19.6372 74.1059 21.2272 72.4667 23.228 72.4667Z" fill="white"/>
</svg>
